<svg xmlns="http://www.w3.org/2000/svg" xmlns:xlink="http://www.w3.org/1999/xlink" width="500" zoomAndPan="magnify" viewBox="0 0 375 374.999991" height="500" preserveAspectRatio="xMidYMid meet" version="1.0"><defs><g/><clipPath id="74a953255c"><path d="M 116.15625 146 L 258.65625 146 L 258.65625 225 L 116.15625 225 Z M 116.15625 146 " clip-rule="nonzero"/></clipPath><clipPath id="2ff2356290"><path d="M 174 112.5 L 181 112.5 L 181 122 L 174 122 Z M 174 112.5 " clip-rule="nonzero"/></clipPath><clipPath id="6a97e82239"><path d="M 182 251 L 192 251 L 192 262.5 L 182 262.5 Z M 182 251 " clip-rule="nonzero"/></clipPath></defs><path fill="#020202" d="M 187.402344 256.769531 C 176.984375 256.769531 167.203125 249.320312 159.867188 235.796875 C 152.5625 222.335938 148.539062 204.449219 148.539062 185.429688 C 148.539062 166.40625 152.5625 148.519531 159.867188 135.058594 C 167.203125 121.535156 176.984375 114.085938 187.402344 114.085938 C 197.824219 114.085938 207.601562 121.535156 214.941406 135.058594 C 222.246094 148.519531 226.265625 166.40625 226.265625 185.429688 C 226.265625 204.449219 222.246094 222.335938 214.941406 235.796875 C 207.601562 249.320312 197.824219 256.769531 187.402344 256.769531 Z M 187.402344 114.75 C 166.339844 114.75 149.203125 146.457031 149.203125 185.429688 C 149.203125 224.398438 166.339844 256.105469 187.402344 256.105469 C 208.46875 256.105469 225.605469 224.398438 225.605469 185.429688 C 225.605469 146.457031 208.46875 114.75 187.402344 114.75 Z M 187.402344 114.75 " fill-opacity="1" fill-rule="nonzero"/><g clip-path="url(#74a953255c)"><path fill="#020202" d="M 187.402344 224.34375 C 168.40625 224.34375 150.542969 220.316406 137.101562 213 C 123.59375 205.652344 116.15625 195.859375 116.15625 185.429688 C 116.15625 174.996094 123.59375 165.203125 137.101562 157.855469 C 150.542969 150.539062 168.40625 146.511719 187.402344 146.511719 C 206.398438 146.511719 224.265625 150.539062 237.707031 157.855469 C 251.214844 165.203125 258.652344 174.996094 258.652344 185.429688 C 258.652344 195.859375 251.214844 205.652344 237.707031 213 C 224.265625 220.316406 206.398438 224.34375 187.402344 224.34375 Z M 187.402344 147.175781 C 148.484375 147.175781 116.820312 164.335938 116.820312 185.429688 C 116.820312 206.519531 148.484375 223.679688 187.402344 223.679688 C 226.324219 223.679688 257.988281 206.519531 257.988281 185.429688 C 257.988281 164.335938 226.324219 147.175781 187.402344 147.175781 Z M 187.402344 147.175781 " fill-opacity="1" fill-rule="nonzero"/></g><path fill="#020202" d="M 156.179688 242.765625 C 148.117188 242.765625 141.445312 240.351562 136.757812 235.605469 C 129.429688 228.1875 127.839844 215.988281 132.277344 201.253906 C 136.695312 186.589844 146.566406 171.144531 160.070312 157.765625 L 160.300781 158 L 160.070312 157.765625 C 173.574219 144.386719 189.101562 134.667969 203.792969 130.398438 C 218.554688 126.113281 230.722656 127.835938 238.050781 135.25 C 245.378906 142.667969 246.96875 154.867188 242.53125 169.601562 C 238.113281 184.265625 228.242188 199.710938 214.738281 213.089844 C 201.234375 226.46875 185.707031 236.1875 171.015625 240.457031 C 165.699219 242 160.71875 242.765625 156.179688 242.765625 Z M 218.625 128.753906 C 214.152344 128.753906 209.234375 129.511719 203.976562 131.035156 C 189.390625 135.273438 173.960938 144.933594 160.535156 158.238281 C 132.867188 185.648438 122.414062 220.144531 137.226562 235.140625 C 141.878906 239.847656 148.480469 242.078125 156.203125 242.082031 C 173.070312 242.082031 195.292969 231.425781 214.273438 212.621094 C 227.699219 199.316406 237.507812 183.972656 241.894531 169.410156 C 246.261719 154.917969 244.730469 142.953125 237.578125 135.71875 C 233.019531 131.101562 226.507812 128.753906 218.625 128.753906 Z M 218.625 128.753906 " fill-opacity="1" fill-rule="nonzero"/><path fill="#020202" d="M 218.445312 243.097656 C 213.792969 243.097656 208.675781 242.277344 203.207031 240.628906 C 188.5625 236.203125 173.136719 226.320312 159.777344 212.796875 C 146.417969 199.277344 136.710938 183.726562 132.449219 169.015625 C 128.164062 154.234375 129.886719 142.054688 137.292969 134.714844 C 144.699219 127.375 156.882812 125.785156 171.597656 130.230469 C 186.246094 134.652344 201.667969 144.535156 215.03125 158.058594 C 228.390625 171.578125 238.097656 187.128906 242.359375 201.839844 C 246.640625 216.621094 244.921875 228.804688 237.515625 236.140625 C 232.859375 240.753906 226.316406 243.097656 218.441406 243.097656 Z M 156.363281 128.421875 C 148.667969 128.421875 142.285156 130.699219 137.757812 135.1875 C 130.53125 142.347656 128.871094 154.292969 133.085938 168.832031 C 137.316406 183.4375 146.964844 198.886719 160.25 212.332031 C 187.621094 240.035156 222.074219 250.503906 237.050781 235.667969 C 252.023438 220.835938 241.933594 186.226562 214.558594 158.523438 C 201.273438 145.078125 185.949219 135.257812 171.40625 130.863281 C 166.003906 129.230469 160.949219 128.421875 156.363281 128.421875 Z M 156.363281 128.421875 " fill-opacity="1" fill-rule="nonzero"/><path fill="#020202" d="M 141.332031 237.464844 L 142.117188 236.101562 L 141.332031 234.742188 L 141.332031 233.167969 L 139.972656 232.382812 L 139.1875 231.019531 L 137.617188 231.019531 L 136.253906 230.230469 L 134.894531 231.019531 L 133.324219 231.019531 L 132.539062 232.382812 L 131.179688 233.167969 L 131.179688 234.742188 L 130.390625 236.101562 L 131.179688 237.464844 L 131.179688 239.039062 L 132.539062 239.824219 L 133.324219 241.1875 L 134.894531 241.1875 L 136.253906 241.972656 L 137.617188 241.1875 L 139.1875 241.1875 L 139.972656 239.824219 L 141.332031 239.039062 Z M 141.332031 237.464844 " fill-opacity="1" fill-rule="nonzero"/><g clip-path="url(#2ff2356290)"><path fill="#020202" d="M 176.582031 117.03125 C 176.582031 114.917969 177.996094 113.132812 179.929688 112.578125 C 179.773438 112.5625 179.613281 112.554688 179.453125 112.554688 C 176.898438 112.554688 174.828125 114.628906 174.828125 117.183594 C 174.828125 119.742188 176.898438 121.816406 179.453125 121.816406 C 179.898438 121.816406 180.324219 121.753906 180.730469 121.640625 C 178.402344 121.398438 176.582031 119.429688 176.582031 117.03125 Z M 176.582031 117.03125 " fill-opacity="1" fill-rule="nonzero"/></g><path fill="#020202" d="M 235.230469 240.511719 C 233.898438 239.640625 233.523438 237.859375 234.390625 236.527344 C 234.75 235.972656 235.273438 235.585938 235.851562 235.382812 C 235.742188 235.292969 235.625 235.207031 235.5 235.125 C 233.550781 233.851562 230.933594 234.40625 229.664062 236.359375 C 228.390625 238.3125 228.941406 240.929688 230.894531 242.207031 C 232.84375 243.480469 235.457031 242.929688 236.730469 240.976562 C 236.214844 240.964844 235.695312 240.8125 235.230469 240.511719 Z M 235.230469 240.511719 " fill-opacity="1" fill-rule="nonzero"/><path fill="#020202" d="M 250.867188 165.5 C 250.867188 165.863281 250.800781 166.210938 250.660156 166.546875 C 250.523438 166.878906 250.324219 167.175781 250.070312 167.433594 C 249.8125 167.6875 249.519531 167.886719 249.183594 168.023438 C 248.851562 168.164062 248.503906 168.234375 248.140625 168.234375 C 247.777344 168.234375 247.429688 168.164062 247.097656 168.023438 C 246.761719 167.886719 246.46875 167.6875 246.210938 167.433594 C 245.957031 167.175781 245.757812 166.878906 245.621094 166.546875 C 245.480469 166.210938 245.410156 165.863281 245.410156 165.5 C 245.410156 165.136719 245.480469 164.789062 245.621094 164.453125 C 245.757812 164.121094 245.957031 163.824219 246.210938 163.570312 C 246.46875 163.3125 246.761719 163.113281 247.097656 162.976562 C 247.429688 162.835938 247.777344 162.769531 248.140625 162.769531 C 248.503906 162.769531 248.851562 162.835938 249.183594 162.976562 C 249.519531 163.113281 249.8125 163.3125 250.070312 163.570312 C 250.324219 163.824219 250.523438 164.121094 250.660156 164.453125 C 250.800781 164.789062 250.867188 165.136719 250.867188 165.5 Z M 250.867188 165.5 " fill-opacity="1" fill-rule="nonzero"/><path fill="#020202" d="M 145.136719 179.71875 C 145.136719 180.082031 145.066406 180.429688 144.929688 180.765625 C 144.789062 181.097656 144.59375 181.394531 144.335938 181.652344 C 144.082031 181.90625 143.785156 182.105469 143.453125 182.242188 C 143.117188 182.382812 142.769531 182.453125 142.40625 182.453125 C 142.046875 182.453125 141.695312 182.382812 141.363281 182.242188 C 141.027344 182.105469 140.734375 181.90625 140.476562 181.652344 C 140.222656 181.394531 140.023438 181.097656 139.886719 180.765625 C 139.746094 180.429688 139.679688 180.082031 139.679688 179.71875 C 139.679688 179.355469 139.746094 179.007812 139.886719 178.671875 C 140.023438 178.339844 140.222656 178.042969 140.476562 177.789062 C 140.734375 177.53125 141.027344 177.332031 141.363281 177.195312 C 141.695312 177.054688 142.046875 176.988281 142.40625 176.988281 C 142.769531 176.988281 143.117188 177.054688 143.453125 177.195312 C 143.785156 177.332031 144.082031 177.53125 144.335938 177.789062 C 144.59375 178.042969 144.789062 178.339844 144.929688 178.671875 C 145.066406 179.007812 145.136719 179.355469 145.136719 179.71875 Z M 145.136719 179.71875 " fill-opacity="1" fill-rule="nonzero"/><path fill="#020202" d="M 193.96875 140.230469 C 193.96875 140.449219 193.929688 140.660156 193.84375 140.863281 C 193.757812 141.066406 193.640625 141.246094 193.484375 141.402344 C 193.328125 141.558594 193.148438 141.679688 192.945312 141.765625 C 192.742188 141.847656 192.53125 141.890625 192.308594 141.890625 C 192.089844 141.890625 191.878906 141.847656 191.675781 141.765625 C 191.472656 141.679688 191.292969 141.558594 191.136719 141.402344 C 190.980469 141.246094 190.859375 141.066406 190.777344 140.863281 C 190.691406 140.660156 190.652344 140.449219 190.652344 140.230469 C 190.652344 140.007812 190.691406 139.796875 190.777344 139.59375 C 190.859375 139.390625 190.980469 139.210938 191.136719 139.054688 C 191.292969 138.898438 191.472656 138.777344 191.675781 138.695312 C 191.878906 138.609375 192.089844 138.566406 192.308594 138.566406 C 192.53125 138.566406 192.742188 138.609375 192.945312 138.695312 C 193.148438 138.777344 193.328125 138.898438 193.484375 139.054688 C 193.640625 139.210938 193.757812 139.390625 193.84375 139.59375 C 193.929688 139.796875 193.96875 140.007812 193.96875 140.230469 Z M 193.96875 140.230469 " fill-opacity="1" fill-rule="nonzero"/><path fill="#020202" d="M 193.96875 236.101562 C 193.96875 236.324219 193.929688 236.535156 193.84375 236.738281 C 193.757812 236.941406 193.640625 237.121094 193.484375 237.277344 C 193.328125 237.433594 193.148438 237.554688 192.945312 237.636719 C 192.742188 237.722656 192.53125 237.765625 192.308594 237.765625 C 192.089844 237.765625 191.878906 237.722656 191.675781 237.636719 C 191.472656 237.554688 191.292969 237.433594 191.136719 237.277344 C 190.980469 237.121094 190.859375 236.941406 190.777344 236.738281 C 190.691406 236.535156 190.652344 236.324219 190.652344 236.101562 C 190.652344 235.882812 190.691406 235.671875 190.777344 235.464844 C 190.859375 235.261719 190.980469 235.082031 191.136719 234.925781 C 191.292969 234.773438 191.472656 234.652344 191.675781 234.566406 C 191.878906 234.484375 192.089844 234.441406 192.308594 234.441406 C 192.53125 234.441406 192.742188 234.484375 192.945312 234.566406 C 193.148438 234.652344 193.328125 234.773438 193.484375 234.925781 C 193.640625 235.082031 193.757812 235.261719 193.84375 235.464844 C 193.929688 235.671875 193.96875 235.882812 193.96875 236.101562 Z M 193.96875 236.101562 " fill-opacity="1" fill-rule="nonzero"/><path fill="#020202" d="M 139.679688 139.078125 C 139.167969 139.140625 138.664062 139.183594 138.164062 139.277344 C 137.023438 139.488281 135.933594 139.890625 135.011719 140.796875 C 134.265625 141.527344 133.777344 142.476562 133.457031 143.570312 C 133.191406 144.484375 133.050781 145.433594 132.980469 146.402344 C 132.949219 146.847656 132.925781 147.292969 132.910156 147.550781 C 132.871094 147.042969 132.835938 146.347656 132.761719 145.660156 C 132.640625 144.519531 132.394531 143.421875 131.925781 142.414062 C 131.292969 141.0625 130.34375 140.210938 129.160156 139.71875 C 128.382812 139.390625 127.582031 139.222656 126.761719 139.152344 C 126.582031 139.136719 126.40625 139.117188 126.222656 139.074219 C 126.285156 139.066406 126.351562 139.050781 126.417969 139.046875 C 127.464844 138.976562 128.492188 138.78125 129.476562 138.304688 C 130.964844 137.582031 131.917969 136.25 132.414062 134.394531 C 132.726562 133.222656 132.847656 132.015625 132.890625 130.789062 L 132.890625 130.769531 C 132.980469 131.632812 133.050781 132.5 133.179688 133.355469 C 133.359375 134.550781 133.730469 135.65625 134.375 136.601562 C 134.925781 137.414062 135.625 137.96875 136.421875 138.34375 C 137.378906 138.796875 138.375 138.976562 139.390625 139.046875 C 139.484375 139.054688 139.578125 139.066406 139.679688 139.078125 Z M 139.679688 139.078125 " fill-opacity="1" fill-rule="nonzero"/><path fill="#020202" d="M 222.175781 161.605469 C 221.832031 161.648438 221.488281 161.675781 221.152344 161.738281 C 220.378906 161.882812 219.644531 162.152344 219.015625 162.769531 C 218.515625 163.261719 218.183594 163.90625 217.964844 164.644531 C 217.785156 165.265625 217.691406 165.90625 217.644531 166.558594 C 217.621094 166.863281 217.605469 167.164062 217.597656 167.335938 C 217.570312 166.996094 217.546875 166.523438 217.496094 166.058594 C 217.414062 165.289062 217.246094 164.542969 216.929688 163.863281 C 216.503906 162.949219 215.859375 162.371094 215.058594 162.039062 C 214.53125 161.816406 213.988281 161.703125 213.4375 161.65625 C 213.316406 161.644531 213.195312 161.632812 213.070312 161.601562 C 213.113281 161.597656 213.160156 161.585938 213.203125 161.585938 C 213.910156 161.535156 214.609375 161.402344 215.273438 161.082031 C 216.28125 160.59375 216.925781 159.691406 217.261719 158.4375 C 217.472656 157.644531 217.554688 156.824219 217.582031 155.996094 L 217.582031 155.984375 C 217.640625 156.566406 217.691406 157.152344 217.777344 157.730469 C 217.898438 158.539062 218.148438 159.289062 218.585938 159.929688 C 218.960938 160.480469 219.433594 160.851562 219.972656 161.109375 C 220.617188 161.414062 221.292969 161.535156 221.980469 161.582031 C 222.042969 161.589844 222.105469 161.597656 222.175781 161.605469 Z M 222.175781 161.605469 " fill-opacity="1" fill-rule="nonzero"/><g clip-path="url(#6a97e82239)"><path fill="#020202" d="M 191.730469 256.707031 C 191.382812 256.75 191.042969 256.78125 190.707031 256.839844 C 189.933594 256.984375 189.195312 257.257812 188.570312 257.871094 C 188.066406 258.367188 187.738281 259.007812 187.519531 259.746094 C 187.339844 260.367188 187.246094 261.007812 187.199219 261.664062 C 187.175781 261.964844 187.160156 262.265625 187.152344 262.441406 C 187.125 262.097656 187.101562 261.628906 187.050781 261.160156 C 186.96875 260.390625 186.800781 259.644531 186.484375 258.964844 C 186.058594 258.050781 185.414062 257.472656 184.613281 257.140625 C 184.085938 256.921875 183.542969 256.804688 182.992188 256.757812 C 182.871094 256.746094 182.75 256.734375 182.625 256.707031 C 182.667969 256.699219 182.710938 256.691406 182.757812 256.6875 C 183.464844 256.640625 184.160156 256.507812 184.828125 256.183594 C 185.835938 255.695312 186.480469 254.792969 186.8125 253.539062 C 187.023438 252.746094 187.109375 251.929688 187.136719 251.097656 L 187.136719 251.085938 C 187.195312 251.667969 187.246094 252.257812 187.332031 252.835938 C 187.453125 253.644531 187.703125 254.390625 188.140625 255.03125 C 188.515625 255.582031 188.988281 255.957031 189.527344 256.210938 C 190.171875 256.515625 190.847656 256.636719 191.535156 256.6875 C 191.597656 256.691406 191.660156 256.699219 191.730469 256.707031 Z M 191.730469 256.707031 " fill-opacity="1" fill-rule="nonzero"/></g><g fill="#000000" fill-opacity="1"><g transform="translate(111.283759, 198.743526)"><g><path d="M 4.859375 -3.25 C 2.398438 -5.925781 1.171875 -9.207031 1.171875 -13.09375 C 1.171875 -16.988281 2.398438 -20.285156 4.859375 -22.984375 C 7.316406 -25.679688 10.441406 -27.03125 14.234375 -27.03125 C 17.710938 -27.03125 20.582031 -25.941406 22.84375 -23.765625 L 22.84375 -44.03125 L 31.90625 -44.03125 L 31.90625 0 L 22.9375 0 L 22.9375 -2.96875 L 22.84375 -2.96875 C 20.582031 -0.476562 17.710938 0.765625 14.234375 0.765625 C 10.441406 0.765625 7.316406 -0.570312 4.859375 -3.25 Z M 12.5625 -17.5625 C 11.382812 -16.40625 10.796875 -14.921875 10.796875 -13.109375 C 10.796875 -11.296875 11.359375 -9.816406 12.484375 -8.671875 C 13.617188 -7.535156 15.109375 -6.96875 16.953125 -6.96875 C 18.722656 -6.96875 20.179688 -7.546875 21.328125 -8.703125 C 22.472656 -9.867188 23.046875 -11.335938 23.046875 -13.109375 C 23.046875 -14.921875 22.457031 -16.40625 21.28125 -17.5625 C 20.101562 -18.71875 18.660156 -19.296875 16.953125 -19.296875 C 15.210938 -19.296875 13.75 -18.71875 12.5625 -17.5625 Z M 12.5625 -17.5625 "/></g></g></g><g fill="#000000" fill-opacity="1"><g transform="translate(141.438716, 198.743526)"><g><path d="M 29.640625 -11.875 L 10.59375 -11.875 C 10.59375 -10.03125 11.191406 -8.664062 12.390625 -7.78125 C 13.585938 -6.894531 14.882812 -6.453125 16.28125 -6.453125 C 17.75 -6.453125 18.910156 -6.644531 19.765625 -7.03125 C 20.617188 -7.425781 21.59375 -8.207031 22.6875 -9.375 L 29.234375 -6.09375 C 26.503906 -1.519531 21.960938 0.765625 15.609375 0.765625 C 11.648438 0.765625 8.253906 -0.585938 5.421875 -3.296875 C 2.585938 -6.015625 1.171875 -9.285156 1.171875 -13.109375 C 1.171875 -16.929688 2.585938 -20.207031 5.421875 -22.9375 C 8.253906 -25.664062 11.648438 -27.03125 15.609375 -27.03125 C 19.773438 -27.03125 23.164062 -25.828125 25.78125 -23.421875 C 28.394531 -21.015625 29.703125 -17.578125 29.703125 -13.109375 C 29.703125 -12.492188 29.679688 -12.082031 29.640625 -11.875 Z M 10.859375 -16.890625 L 20.84375 -16.890625 C 20.632812 -18.253906 20.09375 -19.300781 19.21875 -20.03125 C 18.351562 -20.769531 17.238281 -21.140625 15.875 -21.140625 C 14.375 -21.140625 13.175781 -20.75 12.28125 -19.96875 C 11.394531 -19.1875 10.921875 -18.160156 10.859375 -16.890625 Z M 10.859375 -16.890625 "/></g></g></g><g fill="#000000" fill-opacity="1"><g transform="translate(167.49773, 198.743526)"><g><path d="M 3.078125 0 L 3.078125 -44.03125 L 12.140625 -44.03125 L 12.140625 0 Z M 3.078125 0 "/></g></g></g><g fill="#000000" fill-opacity="1"><g transform="translate(177.889772, 198.743526)"><g><path d="M 11.625 -26.265625 L 11.625 -13.78125 C 11.625 -11.175781 12.015625 -9.328125 12.796875 -8.234375 C 13.585938 -7.148438 14.921875 -6.609375 16.796875 -6.609375 C 18.671875 -6.609375 20 -7.148438 20.78125 -8.234375 C 21.570312 -9.328125 21.96875 -11.175781 21.96875 -13.78125 L 21.96875 -26.265625 L 31.03125 -26.265625 L 31.03125 -11.578125 C 31.03125 -7.203125 29.894531 -4.050781 27.625 -2.125 C 25.351562 -0.195312 21.742188 0.765625 16.796875 0.765625 C 11.847656 0.765625 8.238281 -0.195312 5.96875 -2.125 C 3.695312 -4.050781 2.5625 -7.203125 2.5625 -11.578125 L 2.5625 -26.265625 Z M 11.625 -26.265625 "/></g></g></g><g fill="#000000" fill-opacity="1"><g transform="translate(206.662351, 198.743526)"><g><path d="M 3.078125 0 L 3.078125 -44.03125 L 12.140625 -44.03125 L 12.140625 0 Z M 3.078125 0 "/></g></g></g><g fill="#000000" fill-opacity="1"><g transform="translate(217.054398, 198.743526)"><g><path d="M 11.625 -26.265625 L 11.625 -13.78125 C 11.625 -11.175781 12.015625 -9.328125 12.796875 -8.234375 C 13.585938 -7.148438 14.921875 -6.609375 16.796875 -6.609375 C 18.671875 -6.609375 20 -7.148438 20.78125 -8.234375 C 21.570312 -9.328125 21.96875 -11.175781 21.96875 -13.78125 L 21.96875 -26.265625 L 31.03125 -26.265625 L 31.03125 -11.578125 C 31.03125 -7.203125 29.894531 -4.050781 27.625 -2.125 C 25.351562 -0.195312 21.742188 0.765625 16.796875 0.765625 C 11.847656 0.765625 8.238281 -0.195312 5.96875 -2.125 C 3.695312 -4.050781 2.5625 -7.203125 2.5625 -11.578125 L 2.5625 -26.265625 Z M 11.625 -26.265625 "/></g></g></g><g fill="#000000" fill-opacity="1"><g transform="translate(245.826971, 198.743526)"><g><path d="M 8.90625 -10.953125 C 10.539062 -10.953125 11.929688 -10.378906 13.078125 -9.234375 C 14.222656 -8.097656 14.796875 -6.707031 14.796875 -5.0625 C 14.796875 -3.457031 14.222656 -2.082031 13.078125 -0.9375 C 11.929688 0.195312 10.539062 0.765625 8.90625 0.765625 C 7.300781 0.765625 5.925781 0.195312 4.78125 -0.9375 C 3.644531 -2.082031 3.078125 -3.457031 3.078125 -5.0625 C 3.078125 -6.707031 3.644531 -8.097656 4.78125 -9.234375 C 5.925781 -10.378906 7.300781 -10.953125 8.90625 -10.953125 Z M 8.90625 -10.953125 "/></g></g></g><g fill="#000000" fill-opacity="1"><g transform="translate(160.772353, 212.619406)"><g><path d="M 3.4375 -5.53125 C 3.90625 -5.53125 4.328125 -5.410156 4.703125 -5.171875 C 5.085938 -4.929688 5.390625 -4.597656 5.609375 -4.171875 C 5.828125 -3.742188 5.9375 -3.257812 5.9375 -2.71875 C 5.9375 -2.1875 5.828125 -1.703125 5.609375 -1.265625 C 5.390625 -0.835938 5.085938 -0.5 4.703125 -0.25 C 4.328125 -0.0078125 3.914062 0.109375 3.46875 0.109375 C 3.101562 0.109375 2.765625 0.03125 2.453125 -0.125 C 2.148438 -0.289062 1.90625 -0.488281 1.71875 -0.71875 L 1.71875 -0.421875 C 1.71875 -0.285156 1.671875 -0.164062 1.578125 -0.0625 C 1.484375 0.03125 1.363281 0.078125 1.21875 0.078125 C 1.082031 0.078125 0.96875 0.03125 0.875 -0.0625 C 0.78125 -0.15625 0.734375 -0.273438 0.734375 -0.421875 L 0.734375 -7.140625 C 0.734375 -7.285156 0.773438 -7.398438 0.859375 -7.484375 C 0.953125 -7.578125 1.070312 -7.625 1.21875 -7.625 C 1.363281 -7.625 1.484375 -7.578125 1.578125 -7.484375 C 1.671875 -7.390625 1.71875 -7.273438 1.71875 -7.140625 L 1.71875 -4.625 C 1.875 -4.863281 2.109375 -5.070312 2.421875 -5.25 C 2.742188 -5.4375 3.082031 -5.53125 3.4375 -5.53125 Z M 3.328125 -0.796875 C 3.648438 -0.796875 3.9375 -0.878906 4.1875 -1.046875 C 4.4375 -1.222656 4.628906 -1.457031 4.765625 -1.75 C 4.910156 -2.039062 4.984375 -2.363281 4.984375 -2.71875 C 4.984375 -3.082031 4.910156 -3.40625 4.765625 -3.6875 C 4.628906 -3.976562 4.4375 -4.207031 4.1875 -4.375 C 3.9375 -4.539062 3.648438 -4.625 3.328125 -4.625 C 3.003906 -4.625 2.710938 -4.539062 2.453125 -4.375 C 2.203125 -4.207031 2.003906 -3.976562 1.859375 -3.6875 C 1.722656 -3.40625 1.65625 -3.082031 1.65625 -2.71875 C 1.65625 -2.351562 1.722656 -2.023438 1.859375 -1.734375 C 2.003906 -1.453125 2.203125 -1.222656 2.453125 -1.046875 C 2.710938 -0.878906 3.003906 -0.796875 3.328125 -0.796875 Z M 3.328125 -0.796875 "/></g></g></g><g fill="#000000" fill-opacity="1"><g transform="translate(173.817249, 212.619406)"><g><path d="M 1.796875 -0.5 C 1.796875 -0.351562 1.742188 -0.234375 1.640625 -0.140625 C 1.546875 -0.046875 1.429688 0 1.296875 0 C 1.160156 0 1.046875 -0.046875 0.953125 -0.140625 C 0.859375 -0.234375 0.8125 -0.351562 0.8125 -0.5 L 0.8125 -7.140625 C 0.8125 -7.273438 0.859375 -7.390625 0.953125 -7.484375 C 1.054688 -7.578125 1.175781 -7.625 1.3125 -7.625 C 1.445312 -7.625 1.5625 -7.578125 1.65625 -7.484375 C 1.75 -7.390625 1.796875 -7.273438 1.796875 -7.140625 Z M 1.796875 -0.5 "/></g></g></g><g fill="#000000" fill-opacity="1"><g transform="translate(183.143571, 212.619406)"><g><path d="M 5.84375 -2.703125 C 5.84375 -2.160156 5.722656 -1.675781 5.484375 -1.25 C 5.242188 -0.832031 4.914062 -0.5 4.5 -0.25 C 4.082031 -0.0078125 3.625 0.109375 3.125 0.109375 C 2.625 0.109375 2.164062 -0.0078125 1.75 -0.25 C 1.332031 -0.5 1.003906 -0.832031 0.765625 -1.25 C 0.523438 -1.675781 0.40625 -2.160156 0.40625 -2.703125 C 0.40625 -3.234375 0.523438 -3.71875 0.765625 -4.15625 C 1.003906 -4.59375 1.332031 -4.929688 1.75 -5.171875 C 2.164062 -5.410156 2.625 -5.53125 3.125 -5.53125 C 3.625 -5.53125 4.082031 -5.410156 4.5 -5.171875 C 4.914062 -4.929688 5.242188 -4.59375 5.484375 -4.15625 C 5.722656 -3.71875 5.84375 -3.234375 5.84375 -2.703125 Z M 4.875 -2.703125 C 4.875 -3.078125 4.796875 -3.410156 4.640625 -3.703125 C 4.484375 -3.992188 4.269531 -4.21875 4 -4.375 C 3.738281 -4.539062 3.445312 -4.625 3.125 -4.625 C 2.800781 -4.625 2.503906 -4.539062 2.234375 -4.375 C 1.972656 -4.21875 1.765625 -3.992188 1.609375 -3.703125 C 1.453125 -3.410156 1.375 -3.078125 1.375 -2.703125 C 1.375 -2.335938 1.453125 -2.007812 1.609375 -1.71875 C 1.765625 -1.4375 1.972656 -1.210938 2.234375 -1.046875 C 2.503906 -0.878906 2.800781 -0.796875 3.125 -0.796875 C 3.445312 -0.796875 3.738281 -0.878906 4 -1.046875 C 4.269531 -1.210938 4.484375 -1.4375 4.640625 -1.71875 C 4.796875 -2.007812 4.875 -2.335938 4.875 -2.703125 Z M 4.875 -2.703125 "/></g></g></g><g fill="#000000" fill-opacity="1"><g transform="translate(196.106059, 212.619406)"><g><path d="M 5.25 -5.46875 C 5.394531 -5.46875 5.515625 -5.421875 5.609375 -5.328125 C 5.703125 -5.242188 5.75 -5.125 5.75 -4.96875 L 5.75 -0.4375 C 5.75 0.125 5.628906 0.59375 5.390625 0.96875 C 5.148438 1.34375 4.828125 1.617188 4.421875 1.796875 C 4.015625 1.972656 3.554688 2.0625 3.046875 2.0625 C 2.773438 2.0625 2.453125 2.015625 2.078125 1.921875 C 1.710938 1.828125 1.476562 1.726562 1.375 1.625 C 1.164062 1.507812 1.0625 1.367188 1.0625 1.203125 C 1.0625 1.160156 1.078125 1.109375 1.109375 1.046875 C 1.179688 0.867188 1.304688 0.78125 1.484375 0.78125 C 1.578125 0.78125 1.675781 0.800781 1.78125 0.84375 C 2.320312 1.0625 2.75 1.171875 3.0625 1.171875 C 3.613281 1.171875 4.035156 1.035156 4.328125 0.765625 C 4.617188 0.503906 4.765625 0.144531 4.765625 -0.3125 L 4.765625 -0.875 C 4.617188 -0.601562 4.375 -0.367188 4.03125 -0.171875 C 3.695312 0.015625 3.335938 0.109375 2.953125 0.109375 C 2.484375 0.109375 2.050781 -0.0078125 1.65625 -0.25 C 1.269531 -0.5 0.960938 -0.835938 0.734375 -1.265625 C 0.515625 -1.691406 0.40625 -2.175781 0.40625 -2.71875 C 0.40625 -3.25 0.515625 -3.726562 0.734375 -4.15625 C 0.960938 -4.59375 1.269531 -4.929688 1.65625 -5.171875 C 2.039062 -5.410156 2.46875 -5.53125 2.9375 -5.53125 C 3.3125 -5.53125 3.660156 -5.441406 3.984375 -5.265625 C 4.316406 -5.097656 4.578125 -4.890625 4.765625 -4.640625 L 4.765625 -4.96875 C 4.765625 -5.113281 4.804688 -5.234375 4.890625 -5.328125 C 4.984375 -5.421875 5.101562 -5.46875 5.25 -5.46875 Z M 3.078125 -0.796875 C 3.410156 -0.796875 3.707031 -0.878906 3.96875 -1.046875 C 4.226562 -1.210938 4.429688 -1.441406 4.578125 -1.734375 C 4.734375 -2.023438 4.8125 -2.351562 4.8125 -2.71875 C 4.8125 -3.082031 4.734375 -3.40625 4.578125 -3.6875 C 4.429688 -3.976562 4.226562 -4.207031 3.96875 -4.375 C 3.707031 -4.539062 3.410156 -4.625 3.078125 -4.625 C 2.742188 -4.625 2.445312 -4.539062 2.1875 -4.375 C 1.925781 -4.207031 1.71875 -3.976562 1.5625 -3.6875 C 1.414062 -3.394531 1.34375 -3.070312 1.34375 -2.71875 C 1.34375 -2.351562 1.414062 -2.023438 1.5625 -1.734375 C 1.71875 -1.441406 1.925781 -1.210938 2.1875 -1.046875 C 2.445312 -0.878906 2.742188 -0.796875 3.078125 -0.796875 Z M 3.078125 -0.796875 "/></g></g></g><g fill="#000000" fill-opacity="1"><g transform="translate(209.284862, 212.619406)"><g><path d="M 0.421875 -0.84375 C 0.359375 -0.9375 0.328125 -1.03125 0.328125 -1.125 C 0.328125 -1.257812 0.398438 -1.375 0.546875 -1.46875 C 0.617188 -1.519531 0.695312 -1.546875 0.78125 -1.546875 C 0.90625 -1.546875 1.019531 -1.492188 1.125 -1.390625 C 1.332031 -1.160156 1.550781 -0.984375 1.78125 -0.859375 C 2.019531 -0.742188 2.304688 -0.6875 2.640625 -0.6875 C 2.898438 -0.695312 3.128906 -0.757812 3.328125 -0.875 C 3.523438 -0.988281 3.625 -1.171875 3.625 -1.421875 C 3.625 -1.660156 3.519531 -1.835938 3.3125 -1.953125 C 3.113281 -2.078125 2.820312 -2.191406 2.4375 -2.296875 C 2.050781 -2.398438 1.726562 -2.507812 1.46875 -2.625 C 1.21875 -2.738281 1.003906 -2.898438 0.828125 -3.109375 C 0.648438 -3.328125 0.5625 -3.613281 0.5625 -3.96875 C 0.5625 -4.28125 0.648438 -4.550781 0.828125 -4.78125 C 1.003906 -5.019531 1.238281 -5.203125 1.53125 -5.328125 C 1.820312 -5.460938 2.140625 -5.53125 2.484375 -5.53125 C 2.816406 -5.53125 3.144531 -5.46875 3.46875 -5.34375 C 3.789062 -5.21875 4.054688 -5.03125 4.265625 -4.78125 C 4.347656 -4.675781 4.390625 -4.570312 4.390625 -4.46875 C 4.390625 -4.363281 4.335938 -4.257812 4.234375 -4.15625 C 4.160156 -4.09375 4.070312 -4.0625 3.96875 -4.0625 C 3.84375 -4.0625 3.742188 -4.101562 3.671875 -4.1875 C 3.523438 -4.351562 3.347656 -4.476562 3.140625 -4.5625 C 2.929688 -4.65625 2.695312 -4.703125 2.4375 -4.703125 C 2.175781 -4.703125 1.953125 -4.648438 1.765625 -4.546875 C 1.585938 -4.441406 1.5 -4.257812 1.5 -4 C 1.507812 -3.757812 1.613281 -3.582031 1.8125 -3.46875 C 2.019531 -3.351562 2.332031 -3.238281 2.75 -3.125 C 3.113281 -3.03125 3.414062 -2.925781 3.65625 -2.8125 C 3.894531 -2.707031 4.097656 -2.546875 4.265625 -2.328125 C 4.429688 -2.109375 4.515625 -1.820312 4.515625 -1.46875 C 4.515625 -1.144531 4.421875 -0.863281 4.234375 -0.625 C 4.046875 -0.394531 3.800781 -0.210938 3.5 -0.078125 C 3.207031 0.046875 2.894531 0.109375 2.5625 0.109375 C 2.125 0.109375 1.71875 0.0351562 1.34375 -0.109375 C 0.976562 -0.265625 0.671875 -0.507812 0.421875 -0.84375 Z M 0.421875 -0.84375 "/></g></g></g><g fill="#000000" fill-opacity="1"><g transform="translate(174.011492, 325.064657)"><g><path d="M 0.421875 -0.84375 C 0.359375 -0.9375 0.328125 -1.03125 0.328125 -1.125 C 0.328125 -1.257812 0.398438 -1.375 0.546875 -1.46875 C 0.617188 -1.519531 0.695312 -1.546875 0.78125 -1.546875 C 0.90625 -1.546875 1.019531 -1.492188 1.125 -1.390625 C 1.332031 -1.160156 1.550781 -0.984375 1.78125 -0.859375 C 2.019531 -0.742188 2.304688 -0.6875 2.640625 -0.6875 C 2.898438 -0.695312 3.128906 -0.757812 3.328125 -0.875 C 3.523438 -0.988281 3.625 -1.171875 3.625 -1.421875 C 3.625 -1.660156 3.519531 -1.835938 3.3125 -1.953125 C 3.113281 -2.078125 2.820312 -2.191406 2.4375 -2.296875 C 2.050781 -2.398438 1.726562 -2.507812 1.46875 -2.625 C 1.21875 -2.738281 1.003906 -2.898438 0.828125 -3.109375 C 0.648438 -3.328125 0.5625 -3.613281 0.5625 -3.96875 C 0.5625 -4.28125 0.648438 -4.550781 0.828125 -4.78125 C 1.003906 -5.019531 1.238281 -5.203125 1.53125 -5.328125 C 1.820312 -5.460938 2.140625 -5.53125 2.484375 -5.53125 C 2.816406 -5.53125 3.144531 -5.46875 3.46875 -5.34375 C 3.789062 -5.21875 4.054688 -5.03125 4.265625 -4.78125 C 4.347656 -4.675781 4.390625 -4.570312 4.390625 -4.46875 C 4.390625 -4.363281 4.335938 -4.257812 4.234375 -4.15625 C 4.160156 -4.09375 4.070312 -4.0625 3.96875 -4.0625 C 3.84375 -4.0625 3.742188 -4.101562 3.671875 -4.1875 C 3.523438 -4.351562 3.347656 -4.476562 3.140625 -4.5625 C 2.929688 -4.65625 2.695312 -4.703125 2.4375 -4.703125 C 2.175781 -4.703125 1.953125 -4.648438 1.765625 -4.546875 C 1.585938 -4.441406 1.5 -4.257812 1.5 -4 C 1.507812 -3.757812 1.613281 -3.582031 1.8125 -3.46875 C 2.019531 -3.351562 2.332031 -3.238281 2.75 -3.125 C 3.113281 -3.03125 3.414062 -2.925781 3.65625 -2.8125 C 3.894531 -2.707031 4.097656 -2.546875 4.265625 -2.328125 C 4.429688 -2.109375 4.515625 -1.820312 4.515625 -1.46875 C 4.515625 -1.144531 4.421875 -0.863281 4.234375 -0.625 C 4.046875 -0.394531 3.800781 -0.210938 3.5 -0.078125 C 3.207031 0.046875 2.894531 0.109375 2.5625 0.109375 C 2.125 0.109375 1.71875 0.0351562 1.34375 -0.109375 C 0.976562 -0.265625 0.671875 -0.507812 0.421875 -0.84375 Z M 0.421875 -0.84375 "/></g></g></g><g fill="#000000" fill-opacity="1"><g transform="translate(179.543381, 325.064657)"><g><path d="M 1.65625 -0.5 C 1.65625 -0.351562 1.609375 -0.234375 1.515625 -0.140625 C 1.421875 -0.046875 1.304688 0 1.171875 0 C 1.023438 0 0.90625 -0.046875 0.8125 -0.140625 C 0.726562 -0.234375 0.6875 -0.351562 0.6875 -0.5 L 0.6875 -4.953125 C 0.6875 -5.097656 0.726562 -5.21875 0.8125 -5.3125 C 0.90625 -5.40625 1.023438 -5.453125 1.171875 -5.453125 C 1.304688 -5.453125 1.421875 -5.40625 1.515625 -5.3125 C 1.609375 -5.21875 1.65625 -5.097656 1.65625 -4.953125 Z M 1.15625 -6.140625 C 0.957031 -6.140625 0.816406 -6.175781 0.734375 -6.25 C 0.648438 -6.320312 0.609375 -6.4375 0.609375 -6.59375 L 0.609375 -6.75 C 0.609375 -6.914062 0.65625 -7.03125 0.75 -7.09375 C 0.84375 -7.164062 0.984375 -7.203125 1.171875 -7.203125 C 1.359375 -7.203125 1.492188 -7.164062 1.578125 -7.09375 C 1.671875 -7.019531 1.71875 -6.90625 1.71875 -6.75 L 1.71875 -6.59375 C 1.71875 -6.425781 1.671875 -6.304688 1.578125 -6.234375 C 1.492188 -6.171875 1.351562 -6.140625 1.15625 -6.140625 Z M 1.15625 -6.140625 "/></g></g></g><g fill="#000000" fill-opacity="1"><g transform="translate(182.500075, 325.064657)"><g><path d="M 3.484375 -5.53125 C 4.722656 -5.53125 5.34375 -4.785156 5.34375 -3.296875 L 5.34375 -0.5 C 5.34375 -0.351562 5.296875 -0.234375 5.203125 -0.140625 C 5.109375 -0.046875 4.988281 0 4.84375 0 C 4.707031 0 4.59375 -0.046875 4.5 -0.140625 C 4.40625 -0.234375 4.359375 -0.351562 4.359375 -0.5 L 4.359375 -3.296875 C 4.359375 -3.691406 4.265625 -4.007812 4.078125 -4.25 C 3.898438 -4.5 3.597656 -4.625 3.171875 -4.625 C 2.898438 -4.625 2.648438 -4.5625 2.421875 -4.4375 C 2.203125 -4.320312 2.03125 -4.160156 1.90625 -3.953125 C 1.78125 -3.753906 1.71875 -3.535156 1.71875 -3.296875 L 1.71875 -0.5 C 1.71875 -0.351562 1.671875 -0.234375 1.578125 -0.140625 C 1.484375 -0.046875 1.363281 0 1.21875 0 C 1.070312 0 0.953125 -0.046875 0.859375 -0.140625 C 0.773438 -0.234375 0.734375 -0.351562 0.734375 -0.5 L 0.734375 -4.90625 C 0.734375 -5.039062 0.78125 -5.15625 0.875 -5.25 C 0.96875 -5.351562 1.082031 -5.40625 1.21875 -5.40625 C 1.363281 -5.40625 1.484375 -5.351562 1.578125 -5.25 C 1.671875 -5.15625 1.71875 -5.039062 1.71875 -4.90625 L 1.71875 -4.546875 C 1.894531 -4.816406 2.140625 -5.046875 2.453125 -5.234375 C 2.773438 -5.429688 3.117188 -5.53125 3.484375 -5.53125 Z M 3.484375 -5.53125 "/></g></g></g><g fill="#000000" fill-opacity="1"><g transform="translate(189.185643, 325.064657)"><g><path d="M 3.078125 -5.53125 C 3.617188 -5.53125 4.070312 -5.441406 4.4375 -5.265625 C 4.800781 -5.097656 4.984375 -4.878906 4.984375 -4.609375 C 4.984375 -4.492188 4.941406 -4.390625 4.859375 -4.296875 C 4.785156 -4.203125 4.691406 -4.15625 4.578125 -4.15625 C 4.484375 -4.15625 4.410156 -4.164062 4.359375 -4.1875 C 4.316406 -4.21875 4.25 -4.265625 4.15625 -4.328125 C 4.113281 -4.367188 4.046875 -4.414062 3.953125 -4.46875 C 3.878906 -4.507812 3.765625 -4.546875 3.609375 -4.578125 C 3.453125 -4.609375 3.316406 -4.625 3.203125 -4.625 C 2.835938 -4.625 2.515625 -4.539062 2.234375 -4.375 C 1.960938 -4.207031 1.75 -3.976562 1.59375 -3.6875 C 1.445312 -3.394531 1.375 -3.070312 1.375 -2.71875 C 1.375 -2.351562 1.445312 -2.023438 1.59375 -1.734375 C 1.75 -1.441406 1.957031 -1.210938 2.21875 -1.046875 C 2.488281 -0.878906 2.796875 -0.796875 3.140625 -0.796875 C 3.503906 -0.796875 3.796875 -0.851562 4.015625 -0.96875 C 4.054688 -1 4.117188 -1.046875 4.203125 -1.109375 C 4.273438 -1.160156 4.335938 -1.195312 4.390625 -1.21875 C 4.441406 -1.25 4.503906 -1.265625 4.578125 -1.265625 C 4.710938 -1.265625 4.816406 -1.222656 4.890625 -1.140625 C 4.972656 -1.054688 5.015625 -0.941406 5.015625 -0.796875 C 5.015625 -0.660156 4.921875 -0.519531 4.734375 -0.375 C 4.554688 -0.238281 4.316406 -0.125 4.015625 -0.03125 C 3.710938 0.0625 3.382812 0.109375 3.03125 0.109375 C 2.507812 0.109375 2.046875 -0.0078125 1.640625 -0.25 C 1.242188 -0.5 0.9375 -0.835938 0.71875 -1.265625 C 0.507812 -1.703125 0.40625 -2.1875 0.40625 -2.71875 C 0.40625 -3.238281 0.515625 -3.710938 0.734375 -4.140625 C 0.960938 -4.578125 1.28125 -4.914062 1.6875 -5.15625 C 2.09375 -5.40625 2.554688 -5.53125 3.078125 -5.53125 Z M 3.078125 -5.53125 "/></g></g></g><g fill="#000000" fill-opacity="1"><g transform="translate(195.098654, 325.064657)"><g><path d="M 5.46875 -2.90625 C 5.46875 -2.78125 5.414062 -2.675781 5.3125 -2.59375 C 5.21875 -2.507812 5.109375 -2.46875 4.984375 -2.46875 L 1.34375 -2.46875 C 1.394531 -1.96875 1.585938 -1.5625 1.921875 -1.25 C 2.253906 -0.945312 2.660156 -0.796875 3.140625 -0.796875 C 3.472656 -0.796875 3.742188 -0.84375 3.953125 -0.9375 C 4.160156 -1.039062 4.34375 -1.164062 4.5 -1.3125 C 4.601562 -1.375 4.703125 -1.40625 4.796875 -1.40625 C 4.910156 -1.40625 5.003906 -1.363281 5.078125 -1.28125 C 5.160156 -1.207031 5.203125 -1.113281 5.203125 -1 C 5.203125 -0.851562 5.132812 -0.722656 5 -0.609375 C 4.800781 -0.410156 4.535156 -0.238281 4.203125 -0.09375 C 3.878906 0.0390625 3.546875 0.109375 3.203125 0.109375 C 2.640625 0.109375 2.144531 -0.00390625 1.71875 -0.234375 C 1.300781 -0.472656 0.976562 -0.800781 0.75 -1.21875 C 0.519531 -1.644531 0.40625 -2.125 0.40625 -2.65625 C 0.40625 -3.226562 0.519531 -3.734375 0.75 -4.171875 C 0.988281 -4.609375 1.300781 -4.941406 1.6875 -5.171875 C 2.082031 -5.410156 2.503906 -5.53125 2.953125 -5.53125 C 3.390625 -5.53125 3.800781 -5.414062 4.1875 -5.1875 C 4.570312 -4.957031 4.878906 -4.644531 5.109375 -4.25 C 5.347656 -3.851562 5.46875 -3.40625 5.46875 -2.90625 Z M 2.953125 -4.625 C 2.566406 -4.625 2.234375 -4.515625 1.953125 -4.296875 C 1.671875 -4.078125 1.484375 -3.742188 1.390625 -3.296875 L 4.4375 -3.296875 L 4.4375 -3.375 C 4.40625 -3.738281 4.238281 -4.035156 3.9375 -4.265625 C 3.644531 -4.503906 3.316406 -4.625 2.953125 -4.625 Z M 2.953125 -4.625 "/></g></g></g><g fill="#000000" fill-opacity="1"><g transform="translate(161.695086, 334.814656)"><g><path d="M 5.109375 -7.625 C 5.253906 -7.625 5.375 -7.578125 5.46875 -7.484375 C 5.5625 -7.398438 5.609375 -7.285156 5.609375 -7.140625 L 5.609375 -0.5 C 5.609375 -0.351562 5.5625 -0.234375 5.46875 -0.140625 C 5.375 -0.046875 5.253906 0 5.109375 0 C 4.972656 0 4.859375 -0.046875 4.765625 -0.140625 C 4.671875 -0.234375 4.625 -0.351562 4.625 -0.5 L 4.625 -0.78125 C 4.457031 -0.53125 4.21875 -0.316406 3.90625 -0.140625 C 3.59375 0.0234375 3.253906 0.109375 2.890625 0.109375 C 2.429688 0.109375 2.007812 -0.0078125 1.625 -0.25 C 1.25 -0.5 0.953125 -0.835938 0.734375 -1.265625 C 0.515625 -1.691406 0.40625 -2.175781 0.40625 -2.71875 C 0.40625 -3.25 0.507812 -3.726562 0.71875 -4.15625 C 0.9375 -4.59375 1.234375 -4.929688 1.609375 -5.171875 C 1.992188 -5.410156 2.410156 -5.53125 2.859375 -5.53125 C 3.222656 -5.53125 3.5625 -5.453125 3.875 -5.296875 C 4.1875 -5.148438 4.4375 -4.957031 4.625 -4.71875 L 4.625 -7.140625 C 4.625 -7.285156 4.671875 -7.398438 4.765625 -7.484375 C 4.859375 -7.578125 4.972656 -7.625 5.109375 -7.625 Z M 3.015625 -0.796875 C 3.335938 -0.796875 3.625 -0.878906 3.875 -1.046875 C 4.125 -1.210938 4.316406 -1.441406 4.453125 -1.734375 C 4.597656 -2.023438 4.671875 -2.351562 4.671875 -2.71875 C 4.671875 -3.070312 4.597656 -3.394531 4.453125 -3.6875 C 4.316406 -3.976562 4.125 -4.207031 3.875 -4.375 C 3.625 -4.539062 3.335938 -4.625 3.015625 -4.625 C 2.691406 -4.625 2.40625 -4.539062 2.15625 -4.375 C 1.90625 -4.207031 1.707031 -3.976562 1.5625 -3.6875 C 1.414062 -3.394531 1.34375 -3.070312 1.34375 -2.71875 C 1.34375 -2.351562 1.414062 -2.023438 1.5625 -1.734375 C 1.707031 -1.441406 1.90625 -1.210938 2.15625 -1.046875 C 2.40625 -0.878906 2.691406 -0.796875 3.015625 -0.796875 Z M 3.015625 -0.796875 "/></g></g></g><g fill="#000000" fill-opacity="1"><g transform="translate(168.638181, 334.814656)"><g><path d="M 3.421875 -5.53125 C 3.597656 -5.53125 3.75 -5.484375 3.875 -5.390625 C 4.007812 -5.296875 4.078125 -5.179688 4.078125 -5.046875 C 4.078125 -4.878906 4.035156 -4.75 3.953125 -4.65625 C 3.867188 -4.570312 3.765625 -4.53125 3.640625 -4.53125 C 3.578125 -4.53125 3.484375 -4.550781 3.359375 -4.59375 C 3.210938 -4.644531 3.097656 -4.671875 3.015625 -4.671875 C 2.804688 -4.671875 2.597656 -4.597656 2.390625 -4.453125 C 2.191406 -4.304688 2.03125 -4.101562 1.90625 -3.84375 C 1.78125 -3.582031 1.71875 -3.296875 1.71875 -2.984375 L 1.71875 -0.5 C 1.71875 -0.351562 1.671875 -0.234375 1.578125 -0.140625 C 1.484375 -0.046875 1.363281 0 1.21875 0 C 1.070312 0 0.953125 -0.046875 0.859375 -0.140625 C 0.773438 -0.234375 0.734375 -0.351562 0.734375 -0.5 L 0.734375 -4.90625 C 0.734375 -5.039062 0.78125 -5.15625 0.875 -5.25 C 0.96875 -5.351562 1.082031 -5.40625 1.21875 -5.40625 C 1.363281 -5.40625 1.484375 -5.351562 1.578125 -5.25 C 1.671875 -5.15625 1.71875 -5.039062 1.71875 -4.90625 L 1.71875 -4.390625 C 1.863281 -4.722656 2.085938 -4.992188 2.390625 -5.203125 C 2.691406 -5.410156 3.035156 -5.519531 3.421875 -5.53125 Z M 3.421875 -5.53125 "/></g></g></g><g fill="#000000" fill-opacity="1"><g transform="translate(173.510822, 334.814656)"><g><path d="M 5.46875 -2.90625 C 5.46875 -2.78125 5.414062 -2.675781 5.3125 -2.59375 C 5.21875 -2.507812 5.109375 -2.46875 4.984375 -2.46875 L 1.34375 -2.46875 C 1.394531 -1.96875 1.585938 -1.5625 1.921875 -1.25 C 2.253906 -0.945312 2.660156 -0.796875 3.140625 -0.796875 C 3.472656 -0.796875 3.742188 -0.84375 3.953125 -0.9375 C 4.160156 -1.039062 4.34375 -1.164062 4.5 -1.3125 C 4.601562 -1.375 4.703125 -1.40625 4.796875 -1.40625 C 4.910156 -1.40625 5.003906 -1.363281 5.078125 -1.28125 C 5.160156 -1.207031 5.203125 -1.113281 5.203125 -1 C 5.203125 -0.851562 5.132812 -0.722656 5 -0.609375 C 4.800781 -0.410156 4.535156 -0.238281 4.203125 -0.09375 C 3.878906 0.0390625 3.546875 0.109375 3.203125 0.109375 C 2.640625 0.109375 2.144531 -0.00390625 1.71875 -0.234375 C 1.300781 -0.472656 0.976562 -0.800781 0.75 -1.21875 C 0.519531 -1.644531 0.40625 -2.125 0.40625 -2.65625 C 0.40625 -3.226562 0.519531 -3.734375 0.75 -4.171875 C 0.988281 -4.609375 1.300781 -4.941406 1.6875 -5.171875 C 2.082031 -5.410156 2.503906 -5.53125 2.953125 -5.53125 C 3.390625 -5.53125 3.800781 -5.414062 4.1875 -5.1875 C 4.570312 -4.957031 4.878906 -4.644531 5.109375 -4.25 C 5.347656 -3.851562 5.46875 -3.40625 5.46875 -2.90625 Z M 2.953125 -4.625 C 2.566406 -4.625 2.234375 -4.515625 1.953125 -4.296875 C 1.671875 -4.078125 1.484375 -3.742188 1.390625 -3.296875 L 4.4375 -3.296875 L 4.4375 -3.375 C 4.40625 -3.738281 4.238281 -4.035156 3.9375 -4.265625 C 3.644531 -4.503906 3.316406 -4.625 2.953125 -4.625 Z M 2.953125 -4.625 "/></g></g></g><g fill="#000000" fill-opacity="1"><g transform="translate(180.000673, 334.814656)"><g><path d="M 5.109375 -5.46875 C 5.253906 -5.46875 5.375 -5.421875 5.46875 -5.328125 C 5.5625 -5.242188 5.609375 -5.125 5.609375 -4.96875 L 5.609375 -0.5 C 5.609375 -0.351562 5.5625 -0.234375 5.46875 -0.140625 C 5.375 -0.046875 5.253906 0 5.109375 0 C 4.972656 0 4.859375 -0.046875 4.765625 -0.140625 C 4.671875 -0.234375 4.625 -0.351562 4.625 -0.5 L 4.625 -0.765625 C 4.445312 -0.523438 4.203125 -0.316406 3.890625 -0.140625 C 3.585938 0.0234375 3.253906 0.109375 2.890625 0.109375 C 2.429688 0.109375 2.007812 -0.0078125 1.625 -0.25 C 1.238281 -0.5 0.9375 -0.835938 0.71875 -1.265625 C 0.507812 -1.691406 0.40625 -2.175781 0.40625 -2.71875 C 0.40625 -3.25 0.507812 -3.726562 0.71875 -4.15625 C 0.9375 -4.59375 1.234375 -4.929688 1.609375 -5.171875 C 1.992188 -5.410156 2.410156 -5.53125 2.859375 -5.53125 C 3.222656 -5.53125 3.5625 -5.453125 3.875 -5.296875 C 4.195312 -5.148438 4.445312 -4.957031 4.625 -4.71875 L 4.625 -4.96875 C 4.625 -5.113281 4.671875 -5.234375 4.765625 -5.328125 C 4.859375 -5.421875 4.972656 -5.46875 5.109375 -5.46875 Z M 3.015625 -0.796875 C 3.335938 -0.796875 3.625 -0.878906 3.875 -1.046875 C 4.125 -1.210938 4.316406 -1.441406 4.453125 -1.734375 C 4.597656 -2.023438 4.671875 -2.351562 4.671875 -2.71875 C 4.671875 -3.070312 4.597656 -3.390625 4.453125 -3.671875 C 4.316406 -3.960938 4.125 -4.191406 3.875 -4.359375 C 3.625 -4.535156 3.335938 -4.625 3.015625 -4.625 C 2.691406 -4.625 2.40625 -4.539062 2.15625 -4.375 C 1.90625 -4.207031 1.707031 -3.976562 1.5625 -3.6875 C 1.414062 -3.40625 1.34375 -3.082031 1.34375 -2.71875 C 1.34375 -2.351562 1.414062 -2.023438 1.5625 -1.734375 C 1.707031 -1.441406 1.90625 -1.210938 2.15625 -1.046875 C 2.40625 -0.878906 2.691406 -0.796875 3.015625 -0.796875 Z M 3.015625 -0.796875 "/></g></g></g><g fill="#000000" fill-opacity="1"><g transform="translate(186.943767, 334.814656)"><g><path d="M 6.9375 -5.5 C 8.132812 -5.5 8.734375 -4.75 8.734375 -3.25 L 8.734375 -0.5 C 8.734375 -0.351562 8.6875 -0.234375 8.59375 -0.140625 C 8.507812 -0.046875 8.394531 0 8.25 0 C 8.101562 0 7.984375 -0.046875 7.890625 -0.140625 C 7.796875 -0.234375 7.75 -0.351562 7.75 -0.5 L 7.75 -3.234375 C 7.75 -4.140625 7.375 -4.59375 6.625 -4.59375 C 6.351562 -4.59375 6.109375 -4.53125 5.890625 -4.40625 C 5.671875 -4.289062 5.5 -4.128906 5.375 -3.921875 C 5.257812 -3.710938 5.203125 -3.484375 5.203125 -3.234375 L 5.203125 -0.5 C 5.203125 -0.351562 5.15625 -0.234375 5.0625 -0.140625 C 4.96875 -0.046875 4.851562 0 4.71875 0 C 4.570312 0 4.453125 -0.046875 4.359375 -0.140625 C 4.273438 -0.234375 4.234375 -0.351562 4.234375 -0.5 L 4.234375 -3.25 C 4.234375 -3.65625 4.144531 -3.976562 3.96875 -4.21875 C 3.800781 -4.46875 3.515625 -4.59375 3.109375 -4.59375 C 2.703125 -4.59375 2.367188 -4.460938 2.109375 -4.203125 C 1.847656 -3.941406 1.71875 -3.625 1.71875 -3.25 L 1.71875 -0.5 C 1.71875 -0.351562 1.671875 -0.234375 1.578125 -0.140625 C 1.484375 -0.046875 1.363281 0 1.21875 0 C 1.070312 0 0.953125 -0.046875 0.859375 -0.140625 C 0.773438 -0.234375 0.734375 -0.351562 0.734375 -0.5 L 0.734375 -4.90625 C 0.734375 -5.039062 0.78125 -5.15625 0.875 -5.25 C 0.96875 -5.351562 1.082031 -5.40625 1.21875 -5.40625 C 1.363281 -5.40625 1.484375 -5.351562 1.578125 -5.25 C 1.671875 -5.15625 1.71875 -5.039062 1.71875 -4.90625 L 1.71875 -4.546875 C 1.894531 -4.816406 2.128906 -5.039062 2.421875 -5.21875 C 2.722656 -5.40625 3.050781 -5.5 3.40625 -5.5 C 4.257812 -5.5 4.8125 -5.117188 5.0625 -4.359375 C 5.21875 -4.648438 5.46875 -4.910156 5.8125 -5.140625 C 6.164062 -5.378906 6.539062 -5.5 6.9375 -5.5 Z M 6.9375 -5.5 "/></g></g></g><g fill="#000000" fill-opacity="1"><g transform="translate(197.018286, 334.814656)"><g><path d="M 5.46875 -2.90625 C 5.46875 -2.78125 5.414062 -2.675781 5.3125 -2.59375 C 5.21875 -2.507812 5.109375 -2.46875 4.984375 -2.46875 L 1.34375 -2.46875 C 1.394531 -1.96875 1.585938 -1.5625 1.921875 -1.25 C 2.253906 -0.945312 2.660156 -0.796875 3.140625 -0.796875 C 3.472656 -0.796875 3.742188 -0.84375 3.953125 -0.9375 C 4.160156 -1.039062 4.34375 -1.164062 4.5 -1.3125 C 4.601562 -1.375 4.703125 -1.40625 4.796875 -1.40625 C 4.910156 -1.40625 5.003906 -1.363281 5.078125 -1.28125 C 5.160156 -1.207031 5.203125 -1.113281 5.203125 -1 C 5.203125 -0.851562 5.132812 -0.722656 5 -0.609375 C 4.800781 -0.410156 4.535156 -0.238281 4.203125 -0.09375 C 3.878906 0.0390625 3.546875 0.109375 3.203125 0.109375 C 2.640625 0.109375 2.144531 -0.00390625 1.71875 -0.234375 C 1.300781 -0.472656 0.976562 -0.800781 0.75 -1.21875 C 0.519531 -1.644531 0.40625 -2.125 0.40625 -2.65625 C 0.40625 -3.226562 0.519531 -3.734375 0.75 -4.171875 C 0.988281 -4.609375 1.300781 -4.941406 1.6875 -5.171875 C 2.082031 -5.410156 2.503906 -5.53125 2.953125 -5.53125 C 3.390625 -5.53125 3.800781 -5.414062 4.1875 -5.1875 C 4.570312 -4.957031 4.878906 -4.644531 5.109375 -4.25 C 5.347656 -3.851562 5.46875 -3.40625 5.46875 -2.90625 Z M 2.953125 -4.625 C 2.566406 -4.625 2.234375 -4.515625 1.953125 -4.296875 C 1.671875 -4.078125 1.484375 -3.742188 1.390625 -3.296875 L 4.4375 -3.296875 L 4.4375 -3.375 C 4.40625 -3.738281 4.238281 -4.035156 3.9375 -4.265625 C 3.644531 -4.503906 3.316406 -4.625 2.953125 -4.625 Z M 2.953125 -4.625 "/></g></g></g><g fill="#000000" fill-opacity="1"><g transform="translate(203.508139, 334.814656)"><g><path d="M 3.421875 -5.53125 C 3.597656 -5.53125 3.75 -5.484375 3.875 -5.390625 C 4.007812 -5.296875 4.078125 -5.179688 4.078125 -5.046875 C 4.078125 -4.878906 4.035156 -4.75 3.953125 -4.65625 C 3.867188 -4.570312 3.765625 -4.53125 3.640625 -4.53125 C 3.578125 -4.53125 3.484375 -4.550781 3.359375 -4.59375 C 3.210938 -4.644531 3.097656 -4.671875 3.015625 -4.671875 C 2.804688 -4.671875 2.597656 -4.597656 2.390625 -4.453125 C 2.191406 -4.304688 2.03125 -4.101562 1.90625 -3.84375 C 1.78125 -3.582031 1.71875 -3.296875 1.71875 -2.984375 L 1.71875 -0.5 C 1.71875 -0.351562 1.671875 -0.234375 1.578125 -0.140625 C 1.484375 -0.046875 1.363281 0 1.21875 0 C 1.070312 0 0.953125 -0.046875 0.859375 -0.140625 C 0.773438 -0.234375 0.734375 -0.351562 0.734375 -0.5 L 0.734375 -4.90625 C 0.734375 -5.039062 0.78125 -5.15625 0.875 -5.25 C 0.96875 -5.351562 1.082031 -5.40625 1.21875 -5.40625 C 1.363281 -5.40625 1.484375 -5.351562 1.578125 -5.25 C 1.671875 -5.15625 1.71875 -5.039062 1.71875 -4.90625 L 1.71875 -4.390625 C 1.863281 -4.722656 2.085938 -4.992188 2.390625 -5.203125 C 2.691406 -5.410156 3.035156 -5.519531 3.421875 -5.53125 Z M 3.421875 -5.53125 "/></g></g></g><g fill="#000000" fill-opacity="1"><g transform="translate(208.380781, 334.814656)"><g><path d="M 0.421875 -0.84375 C 0.359375 -0.9375 0.328125 -1.03125 0.328125 -1.125 C 0.328125 -1.257812 0.398438 -1.375 0.546875 -1.46875 C 0.617188 -1.519531 0.695312 -1.546875 0.78125 -1.546875 C 0.90625 -1.546875 1.019531 -1.492188 1.125 -1.390625 C 1.332031 -1.160156 1.550781 -0.984375 1.78125 -0.859375 C 2.019531 -0.742188 2.304688 -0.6875 2.640625 -0.6875 C 2.898438 -0.695312 3.128906 -0.757812 3.328125 -0.875 C 3.523438 -0.988281 3.625 -1.171875 3.625 -1.421875 C 3.625 -1.660156 3.519531 -1.835938 3.3125 -1.953125 C 3.113281 -2.078125 2.820312 -2.191406 2.4375 -2.296875 C 2.050781 -2.398438 1.726562 -2.507812 1.46875 -2.625 C 1.21875 -2.738281 1.003906 -2.898438 0.828125 -3.109375 C 0.648438 -3.328125 0.5625 -3.613281 0.5625 -3.96875 C 0.5625 -4.28125 0.648438 -4.550781 0.828125 -4.78125 C 1.003906 -5.019531 1.238281 -5.203125 1.53125 -5.328125 C 1.820312 -5.460938 2.140625 -5.53125 2.484375 -5.53125 C 2.816406 -5.53125 3.144531 -5.46875 3.46875 -5.34375 C 3.789062 -5.21875 4.054688 -5.03125 4.265625 -4.78125 C 4.347656 -4.675781 4.390625 -4.570312 4.390625 -4.46875 C 4.390625 -4.363281 4.335938 -4.257812 4.234375 -4.15625 C 4.160156 -4.09375 4.070312 -4.0625 3.96875 -4.0625 C 3.84375 -4.0625 3.742188 -4.101562 3.671875 -4.1875 C 3.523438 -4.351562 3.347656 -4.476562 3.140625 -4.5625 C 2.929688 -4.65625 2.695312 -4.703125 2.4375 -4.703125 C 2.175781 -4.703125 1.953125 -4.648438 1.765625 -4.546875 C 1.585938 -4.441406 1.5 -4.257812 1.5 -4 C 1.507812 -3.757812 1.613281 -3.582031 1.8125 -3.46875 C 2.019531 -3.351562 2.332031 -3.238281 2.75 -3.125 C 3.113281 -3.03125 3.414062 -2.925781 3.65625 -2.8125 C 3.894531 -2.707031 4.097656 -2.546875 4.265625 -2.328125 C 4.429688 -2.109375 4.515625 -1.820312 4.515625 -1.46875 C 4.515625 -1.144531 4.421875 -0.863281 4.234375 -0.625 C 4.046875 -0.394531 3.800781 -0.210938 3.5 -0.078125 C 3.207031 0.046875 2.894531 0.109375 2.5625 0.109375 C 2.125 0.109375 1.71875 0.0351562 1.34375 -0.109375 C 0.976562 -0.265625 0.671875 -0.507812 0.421875 -0.84375 Z M 0.421875 -0.84375 "/></g></g></g></svg>